<?xml version="1.0" encoding="UTF-8" standalone="no"?>
<!DOCTYPE svg PUBLIC "-//W3C//DTD SVG 1.1//EN"
 "http://www.w3.org/Graphics/SVG/1.1/DTD/svg11.dtd">
<!-- Generated by graphviz version 2.46.1 (20210213.1702)
 -->
<!-- Title: g Pages: 1 -->
<svg width="2962pt" height="359pt"
 viewBox="0.00 0.00 2961.50 359.00" xmlns="http://www.w3.org/2000/svg" xmlns:xlink="http://www.w3.org/1999/xlink">
<g id="graph0" class="graph" transform="scale(1 1) rotate(0) translate(4 355)">
<title>g</title>
<polygon fill="white" stroke="transparent" points="-4,4 -4,-355 2957.5,-355 2957.5,4 -4,4"/>
<!-- nodo7 -->
<g id="node1" class="node">
<title>nodo7</title>
<polygon fill="#ff0000" fill-opacity="0.372549" stroke="black" points="2234,-351 1797,-351 1797,-298 2234,-298 2234,-351"/>
<text text-anchor="middle" x="2015.5" y="-335.8" font-family="Times New Roman,serif" font-size="14.00">6033e9c5277872a28cec523dfd7a645651248da4aad17ee80e12d5a256f8f7a1</text>
<text text-anchor="middle" x="2015.5" y="-320.8" font-family="Times New Roman,serif" font-size="14.00">5bc1a3349d2e1af3a88f665755fd86f5ed229129f9de3ca47ae5c8b401be6663</text>
<text text-anchor="middle" x="2015.5" y="-305.8" font-family="Times New Roman,serif" font-size="14.00">53a085e2edbcf3856f7de12a6c18f08197b1d3c8b1a0160b6f3b175a2014f7e2</text>
</g>
<!-- nodo3 -->
<g id="node2" class="node">
<title>nodo3</title>
<polygon fill="#ff0000" fill-opacity="0.372549" stroke="black" points="1724,-262 1281,-262 1281,-209 1724,-209 1724,-262"/>
<text text-anchor="middle" x="1502.5" y="-246.8" font-family="Times New Roman,serif" font-size="14.00">53a085e2edbcf3856f7de12a6c18f08197b1d3c8b1a0160b6f3b175a2014f7e2</text>
<text text-anchor="middle" x="1502.5" y="-231.8" font-family="Times New Roman,serif" font-size="14.00">066f49edc5b8d02e3706e92949fda47b5966f2ba583866d203531f2b3be20c67</text>
<text text-anchor="middle" x="1502.5" y="-216.8" font-family="Times New Roman,serif" font-size="14.00">c2a86b17d8827c42a044d609526868038beea273ff18b5229862c8b889dcdef6</text>
</g>
<!-- nodo7&#45;&gt;nodo3 -->
<g id="edge13" class="edge">
<title>nodo7&#45;&gt;nodo3</title>
<path fill="none" stroke="black" d="M1865.05,-297.98C1801.5,-287.21 1727.4,-274.64 1662.82,-263.69"/>
<polygon fill="black" stroke="black" points="1663.39,-260.24 1652.95,-262.01 1662.22,-267.14 1663.39,-260.24"/>
</g>
<!-- nodo11 -->
<g id="node9" class="node">
<title>nodo11</title>
<polygon fill="#ff0000" fill-opacity="0.372549" stroke="black" points="2495.5,-262 2049.5,-262 2049.5,-209 2495.5,-209 2495.5,-262"/>
<text text-anchor="middle" x="2272.5" y="-246.8" font-family="Times New Roman,serif" font-size="14.00">5bc1a3349d2e1af3a88f665755fd86f5ed229129f9de3ca47ae5c8b401be6663</text>
<text text-anchor="middle" x="2272.5" y="-231.8" font-family="Times New Roman,serif" font-size="14.00">e3b0c44298fc1c149afbf4c8996fb92427ae41e4649b934ca495991b7852b855</text>
<text text-anchor="middle" x="2272.5" y="-216.8" font-family="Times New Roman,serif" font-size="14.00">d3cc4baa8cacc1c69480efb65dee6b0965a12a303e94a2bd73dbe0d19c3802c4</text>
</g>
<!-- nodo7&#45;&gt;nodo11 -->
<g id="edge14" class="edge">
<title>nodo7&#45;&gt;nodo11</title>
<path fill="none" stroke="black" d="M2090.87,-297.98C2121.21,-287.72 2156.34,-275.82 2187.57,-265.25"/>
<polygon fill="black" stroke="black" points="2188.78,-268.54 2197.13,-262.01 2186.54,-261.91 2188.78,-268.54"/>
</g>
<!-- nodo1 -->
<g id="node3" class="node">
<title>nodo1</title>
<polygon fill="#ff0000" fill-opacity="0.372549" stroke="black" points="908,-172.5 465,-172.5 465,-119.5 908,-119.5 908,-172.5"/>
<text text-anchor="middle" x="686.5" y="-157.3" font-family="Times New Roman,serif" font-size="14.00">c2a86b17d8827c42a044d609526868038beea273ff18b5229862c8b889dcdef6</text>
<text text-anchor="middle" x="686.5" y="-142.3" font-family="Times New Roman,serif" font-size="14.00">8ae40138553c3acc60ce4d774939dee4b4e10012c7a9e32f2af54e301148c93f</text>
<text text-anchor="middle" x="686.5" y="-127.3" font-family="Times New Roman,serif" font-size="14.00">c9848d01de6df13ff4adb032e9798930f4b49e8d86c5c694bd951fb276ab9a6c</text>
</g>
<!-- nodo3&#45;&gt;nodo1 -->
<g id="edge5" class="edge">
<title>nodo3&#45;&gt;nodo1</title>
<path fill="none" stroke="black" d="M1280.87,-210.73C1168.52,-198.69 1032.14,-184.06 918.38,-171.86"/>
<polygon fill="black" stroke="black" points="918.46,-168.35 908.14,-170.77 917.71,-175.31 918.46,-168.35"/>
</g>
<!-- nodo5 -->
<g id="node6" class="node">
<title>nodo5</title>
<polygon fill="#ff0000" fill-opacity="0.372549" stroke="black" points="1723.5,-172.5 1281.5,-172.5 1281.5,-119.5 1723.5,-119.5 1723.5,-172.5"/>
<text text-anchor="middle" x="1502.5" y="-157.3" font-family="Times New Roman,serif" font-size="14.00">066f49edc5b8d02e3706e92949fda47b5966f2ba583866d203531f2b3be20c67</text>
<text text-anchor="middle" x="1502.5" y="-142.3" font-family="Times New Roman,serif" font-size="14.00">af2fc1fe767e12d22e375fd2ce4b1f12d02d9684505e6fd418c31725e48ab2b3</text>
<text text-anchor="middle" x="1502.5" y="-127.3" font-family="Times New Roman,serif" font-size="14.00">2416a8fd30fbb5b8e3c44b8a67f8465d22738821f320a8a555ca6bade2b53de4</text>
</g>
<!-- nodo3&#45;&gt;nodo5 -->
<g id="edge6" class="edge">
<title>nodo3&#45;&gt;nodo5</title>
<path fill="none" stroke="black" d="M1502.5,-208.72C1502.5,-200.62 1502.5,-191.53 1502.5,-182.86"/>
<polygon fill="black" stroke="black" points="1506,-182.6 1502.5,-172.6 1499,-182.6 1506,-182.6"/>
</g>
<!-- nodo0 -->
<g id="node4" class="node">
<title>nodo0</title>
<polygon fill="#ff0000" fill-opacity="0.372549" stroke="black" points="441,-83 0,-83 0,0 441,0 441,-83"/>
<text text-anchor="middle" x="220.5" y="-67.8" font-family="Times New Roman,serif" font-size="14.00">c9848d01de6df13ff4adb032e9798930f4b49e8d86c5c694bd951fb276ab9a6c</text>
<text text-anchor="middle" x="220.5" y="-52.8" font-family="Times New Roman,serif" font-size="14.00">Amaya, Rolón y Chavarría Asociados,</text>
<text text-anchor="middle" x="220.5" y="-37.8" font-family="Times New Roman,serif" font-size="14.00">Illum accusantium voluptate voluptatem in corrupti dolorem velit et.,</text>
<text text-anchor="middle" x="220.5" y="-22.8" font-family="Times New Roman,serif" font-size="14.00">976191834,</text>
<text text-anchor="middle" x="220.5" y="-7.8" font-family="Times New Roman,serif" font-size="14.00">https://economipedia.com/wp&#45;content/uploads/2015/10/apple&#45;300x300.png</text>
</g>
<!-- nodo1&#45;&gt;nodo0 -->
<g id="edge1" class="edge">
<title>nodo1&#45;&gt;nodo0</title>
<path fill="none" stroke="black" d="M570.41,-119.47C523.34,-109.11 467.67,-96.87 414.74,-85.23"/>
<polygon fill="black" stroke="black" points="415.41,-81.79 404.9,-83.06 413.91,-88.63 415.41,-81.79"/>
</g>
<!-- nodo2 -->
<g id="node5" class="node">
<title>nodo2</title>
<polygon fill="#ff0000" fill-opacity="0.372549" stroke="black" points="914,-83 459,-83 459,0 914,0 914,-83"/>
<text text-anchor="middle" x="686.5" y="-67.8" font-family="Times New Roman,serif" font-size="14.00">8ae40138553c3acc60ce4d774939dee4b4e10012c7a9e32f2af54e301148c93f</text>
<text text-anchor="middle" x="686.5" y="-52.8" font-family="Times New Roman,serif" font-size="14.00">Aguayo Cepeda S.A.,</text>
<text text-anchor="middle" x="686.5" y="-37.8" font-family="Times New Roman,serif" font-size="14.00">Numquam ea est error inventore et porro veritatis.,</text>
<text text-anchor="middle" x="686.5" y="-22.8" font-family="Times New Roman,serif" font-size="14.00">949 586 354,</text>
<text text-anchor="middle" x="686.5" y="-7.8" font-family="Times New Roman,serif" font-size="14.00">https://i.pinimg.com/originals/3d/0f/0e/3d0f0e8f600627fde858f6c6e668e999.gif</text>
</g>
<!-- nodo1&#45;&gt;nodo2 -->
<g id="edge2" class="edge">
<title>nodo1&#45;&gt;nodo2</title>
<path fill="none" stroke="black" d="M686.5,-119.4C686.5,-111.47 686.5,-102.44 686.5,-93.42"/>
<polygon fill="black" stroke="black" points="690,-93.31 686.5,-83.31 683,-93.31 690,-93.31"/>
</g>
<!-- nodo4 -->
<g id="node7" class="node">
<title>nodo4</title>
<polygon fill="#ff0000" fill-opacity="0.372549" stroke="black" points="1561,-83 932,-83 932,0 1561,0 1561,-83"/>
<text text-anchor="middle" x="1246.5" y="-67.8" font-family="Times New Roman,serif" font-size="14.00">2416a8fd30fbb5b8e3c44b8a67f8465d22738821f320a8a555ca6bade2b53de4</text>
<text text-anchor="middle" x="1246.5" y="-52.8" font-family="Times New Roman,serif" font-size="14.00">Amaya, Rolón y Chavarría Asociados,</text>
<text text-anchor="middle" x="1246.5" y="-37.8" font-family="Times New Roman,serif" font-size="14.00">Enim incidunt beatae enim quisquam harum fuga molestiae at.,</text>
<text text-anchor="middle" x="1246.5" y="-22.8" font-family="Times New Roman,serif" font-size="14.00">915 133 743,</text>
<text text-anchor="middle" x="1246.5" y="-7.8" font-family="Times New Roman,serif" font-size="14.00">https://as.com/meristation/imagenes/2021/01/18/mexico/1610944753_187605_1610981923_noticia_normal.jpg</text>
</g>
<!-- nodo5&#45;&gt;nodo4 -->
<g id="edge3" class="edge">
<title>nodo5&#45;&gt;nodo4</title>
<path fill="none" stroke="black" d="M1438.56,-119.4C1413.95,-109.54 1385.07,-97.98 1357.3,-86.86"/>
<polygon fill="black" stroke="black" points="1358.51,-83.58 1347.93,-83.11 1355.91,-90.08 1358.51,-83.58"/>
</g>
<!-- nodo6 -->
<g id="node8" class="node">
<title>nodo6</title>
<polygon fill="#ff0000" fill-opacity="0.372549" stroke="black" points="2026,-83 1579,-83 1579,0 2026,0 2026,-83"/>
<text text-anchor="middle" x="1802.5" y="-67.8" font-family="Times New Roman,serif" font-size="14.00">af2fc1fe767e12d22e375fd2ce4b1f12d02d9684505e6fd418c31725e48ab2b3</text>
<text text-anchor="middle" x="1802.5" y="-52.8" font-family="Times New Roman,serif" font-size="14.00">Aguayo Cepeda S.A.,</text>
<text text-anchor="middle" x="1802.5" y="-37.8" font-family="Times New Roman,serif" font-size="14.00">Animi similique quas quam consectetur dolorem.,</text>
<text text-anchor="middle" x="1802.5" y="-22.8" font-family="Times New Roman,serif" font-size="14.00">961.244.645,</text>
<text text-anchor="middle" x="1802.5" y="-7.8" font-family="Times New Roman,serif" font-size="14.00">https://graffica.info/wp&#45;content/uploads/2017/01/Kentucky&#45;Fried&#45;Chicken.jpg</text>
</g>
<!-- nodo5&#45;&gt;nodo6 -->
<g id="edge4" class="edge">
<title>nodo5&#45;&gt;nodo6</title>
<path fill="none" stroke="black" d="M1577.43,-119.4C1606.73,-109.39 1641.18,-97.62 1674.2,-86.34"/>
<polygon fill="black" stroke="black" points="1675.6,-89.56 1683.93,-83.01 1673.33,-82.93 1675.6,-89.56"/>
</g>
<!-- nodo9 -->
<g id="node10" class="node">
<title>nodo9</title>
<polygon fill="#ff0000" fill-opacity="0.372549" stroke="black" points="2495.5,-173 2049.5,-173 2049.5,-119 2495.5,-119 2495.5,-173"/>
<text text-anchor="middle" x="2272.5" y="-157.8" font-family="Times New Roman,serif" font-size="14.00">d3cc4baa8cacc1c69480efb65dee6b0965a12a303e94a2bd73dbe0d19c3802c4</text>
<text text-anchor="middle" x="2272.5" y="-126.8" font-family="Times New Roman,serif" font-size="14.00">7dc0a399d6e7a8a6112078af1ebeb38aa1fad3a24941a3cbc0c17f9a66ddf7ab</text>
</g>
<!-- nodo11&#45;&gt;nodo9 -->
<g id="edge11" class="edge">
<title>nodo11&#45;&gt;nodo9</title>
<path fill="none" stroke="black" d="M2272.5,-208.72C2272.5,-200.76 2272.5,-191.85 2272.5,-183.32"/>
<polygon fill="black" stroke="black" points="2276,-183.2 2272.5,-173.2 2269,-183.2 2276,-183.2"/>
</g>
<!-- nodo13 -->
<g id="node13" class="node">
<title>nodo13</title>
<polygon fill="#ff0000" fill-opacity="0.372549" stroke="black" points="2953.5,-165.5 2513.5,-165.5 2513.5,-126.5 2953.5,-126.5 2953.5,-165.5"/>
<text text-anchor="middle" x="2733.5" y="-150.3" font-family="Times New Roman,serif" font-size="14.00">e3b0c44298fc1c149afbf4c8996fb92427ae41e4649b934ca495991b7852b855</text>
</g>
<!-- nodo11&#45;&gt;nodo13 -->
<g id="edge12" class="edge">
<title>nodo11&#45;&gt;nodo13</title>
<path fill="none" stroke="black" d="M2407.08,-208.96C2476.72,-195.74 2560.58,-179.82 2625.87,-167.43"/>
<polygon fill="black" stroke="black" points="2626.6,-170.85 2635.77,-165.55 2625.29,-163.98 2626.6,-170.85"/>
</g>
<!-- nodo8 -->
<g id="node11" class="node">
<title>nodo8</title>
<polygon fill="#ff0000" fill-opacity="0.372549" stroke="black" points="2500.5,-83 2044.5,-83 2044.5,0 2500.5,0 2500.5,-83"/>
<text text-anchor="middle" x="2272.5" y="-67.8" font-family="Times New Roman,serif" font-size="14.00">7dc0a399d6e7a8a6112078af1ebeb38aa1fad3a24941a3cbc0c17f9a66ddf7ab</text>
<text text-anchor="middle" x="2272.5" y="-52.8" font-family="Times New Roman,serif" font-size="14.00">Briones Pineda S.A.,</text>
<text text-anchor="middle" x="2272.5" y="-37.8" font-family="Times New Roman,serif" font-size="14.00">Minus esse nemo eveniet sapiente iste sapiente repudiandae sapiente.,</text>
<text text-anchor="middle" x="2272.5" y="-22.8" font-family="Times New Roman,serif" font-size="14.00">918&#45;764&#45;088,</text>
<text text-anchor="middle" x="2272.5" y="-7.8" font-family="Times New Roman,serif" font-size="14.00">https://static&#45;cse.canva.com/blob/211898/17&#45;50&#45;logotipos&#45;que&#45;te&#45;inspiraran.jpg</text>
</g>
<!-- nodo9&#45;&gt;nodo8 -->
<g id="edge7" class="edge">
<title>nodo9&#45;&gt;nodo8</title>
<path fill="none" stroke="black" d="M2272.5,-118.87C2272.5,-111.11 2272.5,-102.33 2272.5,-93.56"/>
<polygon fill="black" stroke="black" points="2276,-93.33 2272.5,-83.33 2269,-93.33 2276,-93.33"/>
</g>
<!-- nodo10 -->
<g id="node12" class="node">
<title>nodo10</title>
<polygon fill="#ff0000" fill-opacity="0.372549" stroke="black" points="2572.5,-61.5 2518.5,-61.5 2518.5,-21.5 2572.5,-21.5 2572.5,-61.5"/>
</g>
<!-- nodo9&#45;&gt;nodo10 -->
<g id="edge8" class="edge">
<title>nodo9&#45;&gt;nodo10</title>
<path fill="none" stroke="black" d="M2426.15,-118.92C2455.11,-110.16 2484.21,-98.51 2509.5,-83 2515.43,-79.37 2520.93,-74.45 2525.77,-69.31"/>
<polygon fill="black" stroke="black" points="2528.44,-71.57 2532.34,-61.72 2523.15,-66.99 2528.44,-71.57"/>
</g>
<!-- nodo12 -->
<g id="node14" class="node">
<title>nodo12</title>
<polygon fill="#ff0000" fill-opacity="0.372549" stroke="black" points="2724.5,-61.5 2670.5,-61.5 2670.5,-21.5 2724.5,-21.5 2724.5,-61.5"/>
</g>
<!-- nodo13&#45;&gt;nodo12 -->
<g id="edge9" class="edge">
<title>nodo13&#45;&gt;nodo12</title>
<path fill="none" stroke="black" d="M2726.9,-126.2C2721.5,-110.84 2713.78,-88.86 2707.61,-71.29"/>
<polygon fill="black" stroke="black" points="2710.8,-69.8 2704.18,-61.53 2704.19,-72.12 2710.8,-69.8"/>
</g>
<!-- nodo14 -->
<g id="node15" class="node">
<title>nodo14</title>
<polygon fill="#ff0000" fill-opacity="0.372549" stroke="black" points="2796.5,-61.5 2742.5,-61.5 2742.5,-21.5 2796.5,-21.5 2796.5,-61.5"/>
</g>
<!-- nodo13&#45;&gt;nodo14 -->
<g id="edge10" class="edge">
<title>nodo13&#45;&gt;nodo14</title>
<path fill="none" stroke="black" d="M2740.1,-126.2C2745.5,-110.84 2753.22,-88.86 2759.39,-71.29"/>
<polygon fill="black" stroke="black" points="2762.81,-72.12 2762.82,-61.53 2756.2,-69.8 2762.81,-72.12"/>
</g>
</g>
</svg>
