<?xml version="1.0" encoding="UTF-8" standalone="no"?>
<!DOCTYPE svg PUBLIC "-//W3C//DTD SVG 1.1//EN"
 "http://www.w3.org/Graphics/SVG/1.1/DTD/svg11.dtd">
<!-- Generated by graphviz version 2.46.1 (20210213.1702)
 -->
<!-- Title: g Pages: 1 -->
<svg width="6663pt" height="477pt"
 viewBox="0.00 0.00 6663.00 477.00" xmlns="http://www.w3.org/2000/svg" xmlns:xlink="http://www.w3.org/1999/xlink">
<g id="graph0" class="graph" transform="scale(1 1) rotate(0) translate(4 473)">
<title>g</title>
<polygon fill="white" stroke="transparent" points="-4,4 -4,-473 6659,-473 6659,4 -4,4"/>
<!-- nodo15 -->
<g id="node1" class="node">
<title>nodo15</title>
<polygon fill="#ff0000" fill-opacity="0.372549" stroke="black" points="4674.5,-469 4231.5,-469 4231.5,-416 4674.5,-416 4674.5,-469"/>
<text text-anchor="middle" x="4453" y="-453.8" font-family="Times New Roman,serif" font-size="14.00">92b025ac0f1aaf445cdfa0b5837fcdfac15fb715dc1483467641798272abac97</text>
<text text-anchor="middle" x="4453" y="-438.8" font-family="Times New Roman,serif" font-size="14.00">62cfa62f49fc5da600bb09626289731c6a0573c21e01e540b7e292d58e2c675e</text>
<text text-anchor="middle" x="4453" y="-423.8" font-family="Times New Roman,serif" font-size="14.00">11c79c6b906cc57784f75e25c5d0ec53264296819c7e0963e76b90a59a5cbf6b</text>
</g>
<!-- nodo7 -->
<g id="node2" class="node">
<title>nodo7</title>
<polygon fill="#ff0000" fill-opacity="0.372549" stroke="black" points="3740.5,-380 3297.5,-380 3297.5,-327 3740.5,-327 3740.5,-380"/>
<text text-anchor="middle" x="3519" y="-364.8" font-family="Times New Roman,serif" font-size="14.00">11c79c6b906cc57784f75e25c5d0ec53264296819c7e0963e76b90a59a5cbf6b</text>
<text text-anchor="middle" x="3519" y="-349.8" font-family="Times New Roman,serif" font-size="14.00">c37a6909532f8e606be2902457cb370563a23d1d29545b327e28d2e5f146fdee</text>
<text text-anchor="middle" x="3519" y="-334.8" font-family="Times New Roman,serif" font-size="14.00">990a3135f4f20959789053ad46697b9cd8b7feb117a1efd5f77efe69015ddfdc</text>
</g>
<!-- nodo15&#45;&gt;nodo7 -->
<g id="edge29" class="edge">
<title>nodo15&#45;&gt;nodo7</title>
<path fill="none" stroke="black" d="M4231.36,-420.85C4086.47,-407.36 3897.57,-389.76 3750.7,-376.08"/>
<polygon fill="black" stroke="black" points="3750.92,-372.59 3740.64,-375.15 3750.27,-379.56 3750.92,-372.59"/>
</g>
<!-- nodo23 -->
<g id="node17" class="node">
<title>nodo23</title>
<polygon fill="#ff0000" fill-opacity="0.372549" stroke="black" points="5510,-380 5066,-380 5066,-327 5510,-327 5510,-380"/>
<text text-anchor="middle" x="5288" y="-364.8" font-family="Times New Roman,serif" font-size="14.00">62cfa62f49fc5da600bb09626289731c6a0573c21e01e540b7e292d58e2c675e</text>
<text text-anchor="middle" x="5288" y="-349.8" font-family="Times New Roman,serif" font-size="14.00">3b7546ed79e3e5a7907381b093c5a182cbf364c5dd0443dfa956c8cca271cc33</text>
<text text-anchor="middle" x="5288" y="-334.8" font-family="Times New Roman,serif" font-size="14.00">3b7546ed79e3e5a7907381b093c5a182cbf364c5dd0443dfa956c8cca271cc33</text>
</g>
<!-- nodo15&#45;&gt;nodo23 -->
<g id="edge30" class="edge">
<title>nodo15&#45;&gt;nodo23</title>
<path fill="none" stroke="black" d="M4674.57,-418.41C4792.17,-406.16 4936.6,-391.11 5055.77,-378.7"/>
<polygon fill="black" stroke="black" points="5056.17,-382.17 5065.75,-377.66 5055.45,-375.21 5056.17,-382.17"/>
</g>
<!-- nodo3 -->
<g id="node3" class="node">
<title>nodo3</title>
<polygon fill="#ff0000" fill-opacity="0.372549" stroke="black" points="2038,-291 1586,-291 1586,-238 2038,-238 2038,-291"/>
<text text-anchor="middle" x="1812" y="-275.8" font-family="Times New Roman,serif" font-size="14.00">990a3135f4f20959789053ad46697b9cd8b7feb117a1efd5f77efe69015ddfdc</text>
<text text-anchor="middle" x="1812" y="-260.8" font-family="Times New Roman,serif" font-size="14.00">88ddd28e144c728056029db0937361cd1d20cd7c78580c3595d2c4fe21d62128</text>
<text text-anchor="middle" x="1812" y="-245.8" font-family="Times New Roman,serif" font-size="14.00">a4c8f8e96689243007f728bee55469f4bb5faef0df595f6556211df6b860bf85</text>
</g>
<!-- nodo7&#45;&gt;nodo3 -->
<g id="edge13" class="edge">
<title>nodo7&#45;&gt;nodo3</title>
<path fill="none" stroke="black" d="M3297.15,-341.19C2974.69,-324.76 2379.03,-294.4 2048.51,-277.55"/>
<polygon fill="black" stroke="black" points="2048.49,-274.05 2038.32,-277.03 2048.13,-281.04 2048.49,-274.05"/>
</g>
<!-- nodo11 -->
<g id="node10" class="node">
<title>nodo11</title>
<polygon fill="#ff0000" fill-opacity="0.372549" stroke="black" points="3740.5,-291 3297.5,-291 3297.5,-238 3740.5,-238 3740.5,-291"/>
<text text-anchor="middle" x="3519" y="-275.8" font-family="Times New Roman,serif" font-size="14.00">c37a6909532f8e606be2902457cb370563a23d1d29545b327e28d2e5f146fdee</text>
<text text-anchor="middle" x="3519" y="-260.8" font-family="Times New Roman,serif" font-size="14.00">69d911de5f48a500287a4a9274572e05c71fc19b5a6ed61b74eee1b93adfd311</text>
<text text-anchor="middle" x="3519" y="-245.8" font-family="Times New Roman,serif" font-size="14.00">5b27a3adf9e7d8662609c08c4beaa54da91632902bfca093504889821c20ecb9</text>
</g>
<!-- nodo7&#45;&gt;nodo11 -->
<g id="edge14" class="edge">
<title>nodo7&#45;&gt;nodo11</title>
<path fill="none" stroke="black" d="M3519,-326.87C3519,-318.89 3519,-309.93 3519,-301.38"/>
<polygon fill="black" stroke="black" points="3522.5,-301.25 3519,-291.25 3515.5,-301.25 3522.5,-301.25"/>
</g>
<!-- nodo1 -->
<g id="node4" class="node">
<title>nodo1</title>
<polygon fill="#ff0000" fill-opacity="0.372549" stroke="black" points="908,-202 462,-202 462,-149 908,-149 908,-202"/>
<text text-anchor="middle" x="685" y="-186.8" font-family="Times New Roman,serif" font-size="14.00">a4c8f8e96689243007f728bee55469f4bb5faef0df595f6556211df6b860bf85</text>
<text text-anchor="middle" x="685" y="-171.8" font-family="Times New Roman,serif" font-size="14.00">8027fed250b665f7c516b3dcfef48993e3a095b07b5b200c360a41203464da3b</text>
<text text-anchor="middle" x="685" y="-156.8" font-family="Times New Roman,serif" font-size="14.00">42c03b8281693c930387ad6c39b615eed70896724ad3208302f2bda2bf1e9475</text>
</g>
<!-- nodo3&#45;&gt;nodo1 -->
<g id="edge5" class="edge">
<title>nodo3&#45;&gt;nodo1</title>
<path fill="none" stroke="black" d="M1585.97,-246.05C1392.23,-231.1 1114.23,-209.63 918.39,-194.52"/>
<polygon fill="black" stroke="black" points="918.49,-191.01 908.25,-193.73 917.95,-197.99 918.49,-191.01"/>
</g>
<!-- nodo5 -->
<g id="node7" class="node">
<title>nodo5</title>
<polygon fill="#ff0000" fill-opacity="0.372549" stroke="black" points="2038,-202 1586,-202 1586,-149 2038,-149 2038,-202"/>
<text text-anchor="middle" x="1812" y="-186.8" font-family="Times New Roman,serif" font-size="14.00">88ddd28e144c728056029db0937361cd1d20cd7c78580c3595d2c4fe21d62128</text>
<text text-anchor="middle" x="1812" y="-171.8" font-family="Times New Roman,serif" font-size="14.00">ec681b01ad3733e51f2347b8f54303ebddf4f0462d549f01056aaae52c56e2db</text>
<text text-anchor="middle" x="1812" y="-156.8" font-family="Times New Roman,serif" font-size="14.00">e60a2561c373dee569b8d6f216193ccbceec2a1076d31f2e56a3f5837ac05825</text>
</g>
<!-- nodo3&#45;&gt;nodo5 -->
<g id="edge6" class="edge">
<title>nodo3&#45;&gt;nodo5</title>
<path fill="none" stroke="black" d="M1812,-237.87C1812,-229.89 1812,-220.93 1812,-212.38"/>
<polygon fill="black" stroke="black" points="1815.5,-212.25 1812,-202.25 1808.5,-212.25 1815.5,-212.25"/>
</g>
<!-- nodo0 -->
<g id="node5" class="node">
<title>nodo0</title>
<polygon fill="#ff0000" fill-opacity="0.372549" stroke="black" points="446,-113 0,-113 0,0 446,0 446,-113"/>
<text text-anchor="middle" x="223" y="-97.8" font-family="Times New Roman,serif" font-size="14.00">42c03b8281693c930387ad6c39b615eed70896724ad3208302f2bda2bf1e9475</text>
<text text-anchor="middle" x="223" y="-82.8" font-family="Times New Roman,serif" font-size="14.00">s8 </text>
<text text-anchor="middle" x="223" y="-67.8" font-family="Times New Roman,serif" font-size="14.00">Aranceles</text>
<text text-anchor="middle" x="223" y="-52.8" font-family="Times New Roman,serif" font-size="14.00">El smartphone del futuro</text>
<text text-anchor="middle" x="223" y="-37.8" font-family="Times New Roman,serif" font-size="14.00">https://i.blogs.es/7a4489/galaxy&#45;s8&#45;4/450_1000.jpg</text>
<text text-anchor="middle" x="223" y="-22.8" font-family="Times New Roman,serif" font-size="14.00">1234</text>
<text text-anchor="middle" x="223" y="-7.8" font-family="Times New Roman,serif" font-size="14.00">%f2500</text>
</g>
<!-- nodo1&#45;&gt;nodo0 -->
<g id="edge1" class="edge">
<title>nodo1&#45;&gt;nodo0</title>
<path fill="none" stroke="black" d="M584.18,-148.97C545.14,-139.08 498.74,-127.33 452.42,-115.6"/>
<polygon fill="black" stroke="black" points="453.09,-112.16 442.54,-113.1 451.37,-118.94 453.09,-112.16"/>
</g>
<!-- nodo2 -->
<g id="node6" class="node">
<title>nodo2</title>
<polygon fill="#ff0000" fill-opacity="0.372549" stroke="black" points="906,-113 464,-113 464,0 906,0 906,-113"/>
<text text-anchor="middle" x="685" y="-97.8" font-family="Times New Roman,serif" font-size="14.00">8027fed250b665f7c516b3dcfef48993e3a095b07b5b200c360a41203464da3b</text>
<text text-anchor="middle" x="685" y="-82.8" font-family="Times New Roman,serif" font-size="14.00">s9 </text>
<text text-anchor="middle" x="685" y="-67.8" font-family="Times New Roman,serif" font-size="14.00">Reparaciones</text>
<text text-anchor="middle" x="685" y="-52.8" font-family="Times New Roman,serif" font-size="14.00">El smartphone del futuro mejorado</text>
<text text-anchor="middle" x="685" y="-37.8" font-family="Times New Roman,serif" font-size="14.00">https://static.kemikcdn.com/2019/01/griss.jpg</text>
<text text-anchor="middle" x="685" y="-22.8" font-family="Times New Roman,serif" font-size="14.00">1233</text>
<text text-anchor="middle" x="685" y="-7.8" font-family="Times New Roman,serif" font-size="14.00">%f5500</text>
</g>
<!-- nodo1&#45;&gt;nodo2 -->
<g id="edge2" class="edge">
<title>nodo1&#45;&gt;nodo2</title>
<path fill="none" stroke="black" d="M685,-148.82C685,-141.2 685,-132.48 685,-123.51"/>
<polygon fill="black" stroke="black" points="688.5,-123.34 685,-113.34 681.5,-123.34 688.5,-123.34"/>
</g>
<!-- nodo4 -->
<g id="node8" class="node">
<title>nodo4</title>
<polygon fill="#ff0000" fill-opacity="0.372549" stroke="black" points="1949.5,-113 924.5,-113 924.5,0 1949.5,0 1949.5,-113"/>
<text text-anchor="middle" x="1437" y="-97.8" font-family="Times New Roman,serif" font-size="14.00">e60a2561c373dee569b8d6f216193ccbceec2a1076d31f2e56a3f5837ac05825</text>
<text text-anchor="middle" x="1437" y="-82.8" font-family="Times New Roman,serif" font-size="14.00">P40 Pro </text>
<text text-anchor="middle" x="1437" y="-67.8" font-family="Times New Roman,serif" font-size="14.00">Textiles</text>
<text text-anchor="middle" x="1437" y="-52.8" font-family="Times New Roman,serif" font-size="14.00">Sobresale en todas Sus areas</text>
<text text-anchor="middle" x="1437" y="-37.8" font-family="Times New Roman,serif" font-size="14.00">https://cdn.computerhoy.com/sites/navi.axelspringer.es/public/styles/1200/public/media/image/2020/01/estos&#45;seran&#45;colores&#45;camaras&#45;huawei&#45;p40&#45;p40&#45;pro&#45;1846245.jpg?itok=SE&#45;h&#45;ICj</text>
<text text-anchor="middle" x="1437" y="-22.8" font-family="Times New Roman,serif" font-size="14.00">1222</text>
<text text-anchor="middle" x="1437" y="-7.8" font-family="Times New Roman,serif" font-size="14.00">%f5500</text>
</g>
<!-- nodo5&#45;&gt;nodo4 -->
<g id="edge3" class="edge">
<title>nodo5&#45;&gt;nodo4</title>
<path fill="none" stroke="black" d="M1730.17,-148.97C1699.01,-139.25 1662.07,-127.72 1625.1,-116.19"/>
<polygon fill="black" stroke="black" points="1625.78,-112.73 1615.19,-113.1 1623.7,-119.42 1625.78,-112.73"/>
</g>
<!-- nodo6 -->
<g id="node9" class="node">
<title>nodo6</title>
<polygon fill="#ff0000" fill-opacity="0.372549" stroke="black" points="2404.5,-113 1967.5,-113 1967.5,0 2404.5,0 2404.5,-113"/>
<text text-anchor="middle" x="2186" y="-97.8" font-family="Times New Roman,serif" font-size="14.00">ec681b01ad3733e51f2347b8f54303ebddf4f0462d549f01056aaae52c56e2db</text>
<text text-anchor="middle" x="2186" y="-82.8" font-family="Times New Roman,serif" font-size="14.00">Mate 40 Pro </text>
<text text-anchor="middle" x="2186" y="-67.8" font-family="Times New Roman,serif" font-size="14.00">Textiles</text>
<text text-anchor="middle" x="2186" y="-52.8" font-family="Times New Roman,serif" font-size="14.00">Son ahora mas eficientes energicamente</text>
<text text-anchor="middle" x="2186" y="-37.8" font-family="Times New Roman,serif" font-size="14.00">https://files.gsmchoice.com/phones/lenovo&#45;p90&#45;pro/lenovo&#45;p90&#45;pro&#45;17.jpg</text>
<text text-anchor="middle" x="2186" y="-22.8" font-family="Times New Roman,serif" font-size="14.00">1232</text>
<text text-anchor="middle" x="2186" y="-7.8" font-family="Times New Roman,serif" font-size="14.00">%f7500</text>
</g>
<!-- nodo5&#45;&gt;nodo6 -->
<g id="edge4" class="edge">
<title>nodo5&#45;&gt;nodo6</title>
<path fill="none" stroke="black" d="M1893.61,-148.97C1924.69,-139.25 1961.53,-127.72 1998.4,-116.19"/>
<polygon fill="black" stroke="black" points="1999.78,-119.42 2008.28,-113.1 1997.69,-112.74 1999.78,-119.42"/>
</g>
<!-- nodo9 -->
<g id="node11" class="node">
<title>nodo9</title>
<polygon fill="#ff0000" fill-opacity="0.372549" stroke="black" points="3414.5,-202 2971.5,-202 2971.5,-149 3414.5,-149 3414.5,-202"/>
<text text-anchor="middle" x="3193" y="-186.8" font-family="Times New Roman,serif" font-size="14.00">5b27a3adf9e7d8662609c08c4beaa54da91632902bfca093504889821c20ecb9</text>
<text text-anchor="middle" x="3193" y="-171.8" font-family="Times New Roman,serif" font-size="14.00">a83e286aa976dee1c1e1fc9c50839658d8e3d7ce53db381d36f8a775100b5615</text>
<text text-anchor="middle" x="3193" y="-156.8" font-family="Times New Roman,serif" font-size="14.00">27a21d58b1da5d0c8abcb537d82d2a4c768d8c602cff8be9fc6292589fd88ce3</text>
</g>
<!-- nodo11&#45;&gt;nodo9 -->
<g id="edge11" class="edge">
<title>nodo11&#45;&gt;nodo9</title>
<path fill="none" stroke="black" d="M3423.39,-237.98C3384.17,-227.52 3338.62,-215.36 3298.43,-204.64"/>
<polygon fill="black" stroke="black" points="3299.17,-201.21 3288.61,-202.01 3297.37,-207.97 3299.17,-201.21"/>
</g>
<!-- nodo13 -->
<g id="node14" class="node">
<title>nodo13</title>
<polygon fill="#ff0000" fill-opacity="0.372549" stroke="black" points="4068.5,-202 3623.5,-202 3623.5,-149 4068.5,-149 4068.5,-202"/>
<text text-anchor="middle" x="3846" y="-186.8" font-family="Times New Roman,serif" font-size="14.00">69d911de5f48a500287a4a9274572e05c71fc19b5a6ed61b74eee1b93adfd311</text>
<text text-anchor="middle" x="3846" y="-171.8" font-family="Times New Roman,serif" font-size="14.00">3a4ef6084d13ab701b27d2b79bd9c99360c5506856da8e89678effd1ad586b25</text>
<text text-anchor="middle" x="3846" y="-156.8" font-family="Times New Roman,serif" font-size="14.00">dd04b24fc81dfa4c33b0583a374df6472a0ad5d45d6995297f1e3d6788777998</text>
</g>
<!-- nodo11&#45;&gt;nodo13 -->
<g id="edge12" class="edge">
<title>nodo11&#45;&gt;nodo13</title>
<path fill="none" stroke="black" d="M3614.9,-237.98C3654.25,-227.52 3699.93,-215.36 3740.25,-204.64"/>
<polygon fill="black" stroke="black" points="3741.34,-207.97 3750.1,-202.01 3739.54,-201.2 3741.34,-207.97"/>
</g>
<!-- nodo8 -->
<g id="node12" class="node">
<title>nodo8</title>
<polygon fill="#ff0000" fill-opacity="0.372549" stroke="black" points="2905,-113 2423,-113 2423,0 2905,0 2905,-113"/>
<text text-anchor="middle" x="2664" y="-97.8" font-family="Times New Roman,serif" font-size="14.00">27a21d58b1da5d0c8abcb537d82d2a4c768d8c602cff8be9fc6292589fd88ce3</text>
<text text-anchor="middle" x="2664" y="-82.8" font-family="Times New Roman,serif" font-size="14.00">Razer Huntsman mini </text>
<text text-anchor="middle" x="2664" y="-67.8" font-family="Times New Roman,serif" font-size="14.00">Aranceles</text>
<text text-anchor="middle" x="2664" y="-52.8" font-family="Times New Roman,serif" font-size="14.00">Teclado OptoMecanico con switches purple</text>
<text text-anchor="middle" x="2664" y="-37.8" font-family="Times New Roman,serif" font-size="14.00">https://techaeris.com/wp&#45;content/uploads/2020/07/Razer&#45;Huntsman&#45;Mini&#45;review.jpg</text>
<text text-anchor="middle" x="2664" y="-22.8" font-family="Times New Roman,serif" font-size="14.00">4222</text>
<text text-anchor="middle" x="2664" y="-7.8" font-family="Times New Roman,serif" font-size="14.00">%f810</text>
</g>
<!-- nodo9&#45;&gt;nodo8 -->
<g id="edge7" class="edge">
<title>nodo9&#45;&gt;nodo8</title>
<path fill="none" stroke="black" d="M3076.93,-148.96C3029.46,-138.5 2973.74,-126.21 2914.99,-113.22"/>
<polygon fill="black" stroke="black" points="2915.67,-109.79 2905.15,-111.04 2914.16,-116.62 2915.67,-109.79"/>
</g>
<!-- nodo10 -->
<g id="node13" class="node">
<title>nodo10</title>
<polygon fill="#ff0000" fill-opacity="0.372549" stroke="black" points="3462.5,-113 2923.5,-113 2923.5,0 3462.5,0 3462.5,-113"/>
<text text-anchor="middle" x="3193" y="-97.8" font-family="Times New Roman,serif" font-size="14.00">a83e286aa976dee1c1e1fc9c50839658d8e3d7ce53db381d36f8a775100b5615</text>
<text text-anchor="middle" x="3193" y="-82.8" font-family="Times New Roman,serif" font-size="14.00">Logitech G G915TKL </text>
<text text-anchor="middle" x="3193" y="-67.8" font-family="Times New Roman,serif" font-size="14.00">Reparaciones</text>
<text text-anchor="middle" x="3193" y="-52.8" font-family="Times New Roman,serif" font-size="14.00">Juega en la siguiente dimension con los nuevos skitches reducidos para una mejor comodidad</text>
<text text-anchor="middle" x="3193" y="-37.8" font-family="Times New Roman,serif" font-size="14.00">https://static.kemikcdn.com/2020/02/G502X1.jpg</text>
<text text-anchor="middle" x="3193" y="-22.8" font-family="Times New Roman,serif" font-size="14.00">4232</text>
<text text-anchor="middle" x="3193" y="-7.8" font-family="Times New Roman,serif" font-size="14.00">%f1844</text>
</g>
<!-- nodo9&#45;&gt;nodo10 -->
<g id="edge8" class="edge">
<title>nodo9&#45;&gt;nodo10</title>
<path fill="none" stroke="black" d="M3193,-148.82C3193,-141.2 3193,-132.48 3193,-123.51"/>
<polygon fill="black" stroke="black" points="3196.5,-123.34 3193,-113.34 3189.5,-123.34 3196.5,-123.34"/>
</g>
<!-- nodo12 -->
<g id="node15" class="node">
<title>nodo12</title>
<polygon fill="#ff0000" fill-opacity="0.372549" stroke="black" points="4211.5,-113 3480.5,-113 3480.5,0 4211.5,0 4211.5,-113"/>
<text text-anchor="middle" x="3846" y="-97.8" font-family="Times New Roman,serif" font-size="14.00">dd04b24fc81dfa4c33b0583a374df6472a0ad5d45d6995297f1e3d6788777998</text>
<text text-anchor="middle" x="3846" y="-82.8" font-family="Times New Roman,serif" font-size="14.00">Nike SB </text>
<text text-anchor="middle" x="3846" y="-67.8" font-family="Times New Roman,serif" font-size="14.00">Aranceles</text>
<text text-anchor="middle" x="3846" y="-52.8" font-family="Times New Roman,serif" font-size="14.00">Comodos y ergonomicos para una mejor estabilidad de los deportistas</text>
<text text-anchor="middle" x="3846" y="-37.8" font-family="Times New Roman,serif" font-size="14.00">https://tecvolucion.com/wp&#45;content/uploads/2019/01/Sp19_BB_Nike_Adapt_20181218_NIKE0538_Detail5_rectangle_1600.jpg</text>
<text text-anchor="middle" x="3846" y="-22.8" font-family="Times New Roman,serif" font-size="14.00">2234</text>
<text text-anchor="middle" x="3846" y="-7.8" font-family="Times New Roman,serif" font-size="14.00">%f1500</text>
</g>
<!-- nodo13&#45;&gt;nodo12 -->
<g id="edge9" class="edge">
<title>nodo13&#45;&gt;nodo12</title>
<path fill="none" stroke="black" d="M3846,-148.82C3846,-141.2 3846,-132.48 3846,-123.51"/>
<polygon fill="black" stroke="black" points="3849.5,-123.34 3846,-113.34 3842.5,-123.34 3849.5,-123.34"/>
</g>
<!-- nodo14 -->
<g id="node16" class="node">
<title>nodo14</title>
<polygon fill="#ff0000" fill-opacity="0.372549" stroke="black" points="5016,-113 4230,-113 4230,0 5016,0 5016,-113"/>
<text text-anchor="middle" x="4623" y="-97.8" font-family="Times New Roman,serif" font-size="14.00">3a4ef6084d13ab701b27d2b79bd9c99360c5506856da8e89678effd1ad586b25</text>
<text text-anchor="middle" x="4623" y="-82.8" font-family="Times New Roman,serif" font-size="14.00">Air Jordan </text>
<text text-anchor="middle" x="4623" y="-67.8" font-family="Times New Roman,serif" font-size="14.00">Textiles</text>
<text text-anchor="middle" x="4623" y="-52.8" font-family="Times New Roman,serif" font-size="14.00">El mejor estilo y comodidad, tanto para basketbolistas como de uso casual</text>
<text text-anchor="middle" x="4623" y="-37.8" font-family="Times New Roman,serif" font-size="14.00">https://images.mediotiempo.com/TAGSYH6AgmeIR2gKHucF5vK8lDs=/0x530/uploads/media/2020/05/05/air&#45;jordan&#45;vi&#45;fabricados&#45;mj.jpg</text>
<text text-anchor="middle" x="4623" y="-22.8" font-family="Times New Roman,serif" font-size="14.00">2313</text>
<text text-anchor="middle" x="4623" y="-7.8" font-family="Times New Roman,serif" font-size="14.00">%f1300</text>
</g>
<!-- nodo13&#45;&gt;nodo14 -->
<g id="edge10" class="edge">
<title>nodo13&#45;&gt;nodo14</title>
<path fill="none" stroke="black" d="M4015.56,-148.97C4083.11,-138.8 4163.77,-126.65 4243.9,-114.58"/>
<polygon fill="black" stroke="black" points="4244.81,-117.99 4254.18,-113.04 4243.77,-111.07 4244.81,-117.99"/>
</g>
<!-- nodo19 -->
<g id="node18" class="node">
<title>nodo19</title>
<polygon fill="#ff0000" fill-opacity="0.372549" stroke="black" points="5510,-291 5066,-291 5066,-238 5510,-238 5510,-291"/>
<text text-anchor="middle" x="5288" y="-275.8" font-family="Times New Roman,serif" font-size="14.00">3b7546ed79e3e5a7907381b093c5a182cbf364c5dd0443dfa956c8cca271cc33</text>
<text text-anchor="middle" x="5288" y="-260.8" font-family="Times New Roman,serif" font-size="14.00">e3b0c44298fc1c149afbf4c8996fb92427ae41e4649b934ca495991b7852b855</text>
<text text-anchor="middle" x="5288" y="-245.8" font-family="Times New Roman,serif" font-size="14.00">e3b0c44298fc1c149afbf4c8996fb92427ae41e4649b934ca495991b7852b855</text>
</g>
<!-- nodo23&#45;&gt;nodo19 -->
<g id="edge27" class="edge">
<title>nodo23&#45;&gt;nodo19</title>
<path fill="none" stroke="black" d="M5288,-326.87C5288,-318.89 5288,-309.93 5288,-301.38"/>
<polygon fill="black" stroke="black" points="5291.5,-301.25 5288,-291.25 5284.5,-301.25 5291.5,-301.25"/>
</g>
<!-- nodo27 -->
<g id="node25" class="node">
<title>nodo27</title>
<polygon fill="#ff0000" fill-opacity="0.372549" stroke="black" points="6199,-291 5755,-291 5755,-238 6199,-238 6199,-291"/>
<text text-anchor="middle" x="5977" y="-275.8" font-family="Times New Roman,serif" font-size="14.00">3b7546ed79e3e5a7907381b093c5a182cbf364c5dd0443dfa956c8cca271cc33</text>
<text text-anchor="middle" x="5977" y="-260.8" font-family="Times New Roman,serif" font-size="14.00">e3b0c44298fc1c149afbf4c8996fb92427ae41e4649b934ca495991b7852b855</text>
<text text-anchor="middle" x="5977" y="-245.8" font-family="Times New Roman,serif" font-size="14.00">e3b0c44298fc1c149afbf4c8996fb92427ae41e4649b934ca495991b7852b855</text>
</g>
<!-- nodo23&#45;&gt;nodo27 -->
<g id="edge28" class="edge">
<title>nodo23&#45;&gt;nodo27</title>
<path fill="none" stroke="black" d="M5490.07,-326.98C5576.48,-316.07 5677.4,-303.33 5764.88,-292.28"/>
<polygon fill="black" stroke="black" points="5765.45,-295.74 5774.94,-291.01 5764.58,-288.79 5765.45,-295.74"/>
</g>
<!-- nodo17 -->
<g id="node19" class="node">
<title>nodo17</title>
<polygon fill="#ff0000" fill-opacity="0.372549" stroke="black" points="5281,-195 4841,-195 4841,-156 5281,-156 5281,-195"/>
<text text-anchor="middle" x="5061" y="-179.8" font-family="Times New Roman,serif" font-size="14.00">e3b0c44298fc1c149afbf4c8996fb92427ae41e4649b934ca495991b7852b855</text>
</g>
<!-- nodo19&#45;&gt;nodo17 -->
<g id="edge19" class="edge">
<title>nodo19&#45;&gt;nodo17</title>
<path fill="none" stroke="black" d="M5221.43,-237.98C5188.94,-225.53 5150.23,-210.7 5118.98,-198.72"/>
<polygon fill="black" stroke="black" points="5120.12,-195.41 5109.53,-195.1 5117.62,-201.95 5120.12,-195.41"/>
</g>
<!-- nodo21 -->
<g id="node22" class="node">
<title>nodo21</title>
<polygon fill="#ff0000" fill-opacity="0.372549" stroke="black" points="5739,-195 5299,-195 5299,-156 5739,-156 5739,-195"/>
<text text-anchor="middle" x="5519" y="-179.8" font-family="Times New Roman,serif" font-size="14.00">e3b0c44298fc1c149afbf4c8996fb92427ae41e4649b934ca495991b7852b855</text>
</g>
<!-- nodo19&#45;&gt;nodo21 -->
<g id="edge20" class="edge">
<title>nodo19&#45;&gt;nodo21</title>
<path fill="none" stroke="black" d="M5355.75,-237.98C5388.8,-225.53 5428.2,-210.7 5460,-198.72"/>
<polygon fill="black" stroke="black" points="5461.49,-201.9 5469.61,-195.1 5459.02,-195.35 5461.49,-201.9"/>
</g>
<!-- nodo16 -->
<g id="node20" class="node">
<title>nodo16</title>
<polygon fill="#ff0000" fill-opacity="0.372549" stroke="black" points="5088,-76.5 5034,-76.5 5034,-36.5 5088,-36.5 5088,-76.5"/>
</g>
<!-- nodo17&#45;&gt;nodo16 -->
<g id="edge15" class="edge">
<title>nodo17&#45;&gt;nodo16</title>
<path fill="none" stroke="black" d="M5061,-155.96C5061,-137.44 5061,-108.68 5061,-87.02"/>
<polygon fill="black" stroke="black" points="5064.5,-86.73 5061,-76.73 5057.5,-86.73 5064.5,-86.73"/>
</g>
<!-- nodo18 -->
<g id="node21" class="node">
<title>nodo18</title>
<polygon fill="#ff0000" fill-opacity="0.372549" stroke="black" points="5160,-76.5 5106,-76.5 5106,-36.5 5160,-36.5 5160,-76.5"/>
</g>
<!-- nodo17&#45;&gt;nodo18 -->
<g id="edge16" class="edge">
<title>nodo17&#45;&gt;nodo18</title>
<path fill="none" stroke="black" d="M5072.41,-155.96C5084.12,-136.93 5102.48,-107.1 5115.92,-85.25"/>
<polygon fill="black" stroke="black" points="5118.91,-87.08 5121.17,-76.73 5112.94,-83.41 5118.91,-87.08"/>
</g>
<!-- nodo20 -->
<g id="node23" class="node">
<title>nodo20</title>
<polygon fill="#ff0000" fill-opacity="0.372549" stroke="black" points="5510,-76.5 5456,-76.5 5456,-36.5 5510,-36.5 5510,-76.5"/>
</g>
<!-- nodo21&#45;&gt;nodo20 -->
<g id="edge17" class="edge">
<title>nodo21&#45;&gt;nodo20</title>
<path fill="none" stroke="black" d="M5513.3,-155.96C5507.54,-137.27 5498.59,-108.16 5491.9,-86.43"/>
<polygon fill="black" stroke="black" points="5495.2,-85.26 5488.92,-76.73 5488.51,-87.32 5495.2,-85.26"/>
</g>
<!-- nodo22 -->
<g id="node24" class="node">
<title>nodo22</title>
<polygon fill="#ff0000" fill-opacity="0.372549" stroke="black" points="5582,-76.5 5528,-76.5 5528,-36.5 5582,-36.5 5582,-76.5"/>
</g>
<!-- nodo21&#45;&gt;nodo22 -->
<g id="edge18" class="edge">
<title>nodo21&#45;&gt;nodo22</title>
<path fill="none" stroke="black" d="M5524.7,-155.96C5530.46,-137.27 5539.41,-108.16 5546.1,-86.43"/>
<polygon fill="black" stroke="black" points="5549.49,-87.32 5549.08,-76.73 5542.8,-85.26 5549.49,-87.32"/>
</g>
<!-- nodo25 -->
<g id="node26" class="node">
<title>nodo25</title>
<polygon fill="#ff0000" fill-opacity="0.372549" stroke="black" points="6197,-195 5757,-195 5757,-156 6197,-156 6197,-195"/>
<text text-anchor="middle" x="5977" y="-179.8" font-family="Times New Roman,serif" font-size="14.00">e3b0c44298fc1c149afbf4c8996fb92427ae41e4649b934ca495991b7852b855</text>
</g>
<!-- nodo27&#45;&gt;nodo25 -->
<g id="edge25" class="edge">
<title>nodo27&#45;&gt;nodo25</title>
<path fill="none" stroke="black" d="M5977,-237.87C5977,-227.57 5977,-215.65 5977,-205.07"/>
<polygon fill="black" stroke="black" points="5980.5,-205.05 5977,-195.05 5973.5,-205.05 5980.5,-205.05"/>
</g>
<!-- nodo29 -->
<g id="node29" class="node">
<title>nodo29</title>
<polygon fill="#ff0000" fill-opacity="0.372549" stroke="black" points="6655,-195 6215,-195 6215,-156 6655,-156 6655,-195"/>
<text text-anchor="middle" x="6435" y="-179.8" font-family="Times New Roman,serif" font-size="14.00">e3b0c44298fc1c149afbf4c8996fb92427ae41e4649b934ca495991b7852b855</text>
</g>
<!-- nodo27&#45;&gt;nodo29 -->
<g id="edge26" class="edge">
<title>nodo27&#45;&gt;nodo29</title>
<path fill="none" stroke="black" d="M6111.32,-237.98C6180.1,-224.92 6262.7,-209.23 6327.24,-196.97"/>
<polygon fill="black" stroke="black" points="6328.27,-200.34 6337.44,-195.03 6326.97,-193.46 6328.27,-200.34"/>
</g>
<!-- nodo24 -->
<g id="node27" class="node">
<title>nodo24</title>
<polygon fill="#ff0000" fill-opacity="0.372549" stroke="black" points="5968,-76.5 5914,-76.5 5914,-36.5 5968,-36.5 5968,-76.5"/>
</g>
<!-- nodo25&#45;&gt;nodo24 -->
<g id="edge21" class="edge">
<title>nodo25&#45;&gt;nodo24</title>
<path fill="none" stroke="black" d="M5971.3,-155.96C5965.54,-137.27 5956.59,-108.16 5949.9,-86.43"/>
<polygon fill="black" stroke="black" points="5953.2,-85.26 5946.92,-76.73 5946.51,-87.32 5953.2,-85.26"/>
</g>
<!-- nodo26 -->
<g id="node28" class="node">
<title>nodo26</title>
<polygon fill="#ff0000" fill-opacity="0.372549" stroke="black" points="6040,-76.5 5986,-76.5 5986,-36.5 6040,-36.5 6040,-76.5"/>
</g>
<!-- nodo25&#45;&gt;nodo26 -->
<g id="edge22" class="edge">
<title>nodo25&#45;&gt;nodo26</title>
<path fill="none" stroke="black" d="M5982.7,-155.96C5988.46,-137.27 5997.41,-108.16 6004.1,-86.43"/>
<polygon fill="black" stroke="black" points="6007.49,-87.32 6007.08,-76.73 6000.8,-85.26 6007.49,-87.32"/>
</g>
<!-- nodo28 -->
<g id="node30" class="node">
<title>nodo28</title>
<polygon fill="#ff0000" fill-opacity="0.372549" stroke="black" points="6426,-76.5 6372,-76.5 6372,-36.5 6426,-36.5 6426,-76.5"/>
</g>
<!-- nodo29&#45;&gt;nodo28 -->
<g id="edge23" class="edge">
<title>nodo29&#45;&gt;nodo28</title>
<path fill="none" stroke="black" d="M6429.3,-155.96C6423.54,-137.27 6414.59,-108.16 6407.9,-86.43"/>
<polygon fill="black" stroke="black" points="6411.2,-85.26 6404.92,-76.73 6404.51,-87.32 6411.2,-85.26"/>
</g>
<!-- nodo30 -->
<g id="node31" class="node">
<title>nodo30</title>
<polygon fill="#ff0000" fill-opacity="0.372549" stroke="black" points="6498,-76.5 6444,-76.5 6444,-36.5 6498,-36.5 6498,-76.5"/>
</g>
<!-- nodo29&#45;&gt;nodo30 -->
<g id="edge24" class="edge">
<title>nodo29&#45;&gt;nodo30</title>
<path fill="none" stroke="black" d="M6440.7,-155.96C6446.46,-137.27 6455.41,-108.16 6462.1,-86.43"/>
<polygon fill="black" stroke="black" points="6465.49,-87.32 6465.08,-76.73 6458.8,-85.26 6465.49,-87.32"/>
</g>
</g>
</svg>
