<?xml version="1.0" encoding="UTF-8" standalone="no"?>
<!DOCTYPE svg PUBLIC "-//W3C//DTD SVG 1.1//EN"
 "http://www.w3.org/Graphics/SVG/1.1/DTD/svg11.dtd">
<!-- Generated by graphviz version 2.46.1 (20210213.1702)
 -->
<!-- Title: grafo Pages: 1 -->
<svg width="119pt" height="232pt"
 viewBox="0.00 0.00 119.44 231.88" xmlns="http://www.w3.org/2000/svg" xmlns:xlink="http://www.w3.org/1999/xlink">
<g id="graph0" class="graph" transform="scale(1 1) rotate(0) translate(4 227.88)">
<title>grafo</title>
<polygon fill="white" stroke="transparent" points="-4,4 -4,-227.88 115.44,-227.88 115.44,4 -4,4"/>
<!-- Textiles -->
<g id="node1" class="node">
<title>Textiles</title>
<ellipse fill="lightgrey" stroke="black" cx="47.45" cy="-184.89" rx="38.99" ry="38.99"/>
<text text-anchor="middle" x="47.45" y="-181.19" font-family="Times New Roman,serif" font-size="14.00">Textiles</text>
</g>
<!-- Textiles&#45;&gt;Textiles -->
<g id="edge3" class="edge">
<title>Textiles&#45;&gt;Textiles</title>
<path fill="none" stroke="black" d="M84.72,-196.86C95.81,-196.5 104.44,-192.51 104.44,-184.89 104.44,-179.77 100.55,-176.28 94.63,-174.44"/>
<polygon fill="black" stroke="black" points="95.14,-170.98 84.72,-172.91 94.07,-177.9 95.14,-170.98"/>
<text text-anchor="middle" x="107.94" y="-181.19" font-family="Times New Roman,serif" font-size="14.00">3</text>
</g>
<!-- Despacho -->
<g id="node2" class="node">
<title>Despacho</title>
<ellipse fill="lightgrey" stroke="black" cx="47.45" cy="-47.45" rx="47.39" ry="47.39"/>
<text text-anchor="middle" x="47.45" y="-43.75" font-family="Times New Roman,serif" font-size="14.00">Despacho</text>
</g>
<!-- Textiles&#45;&gt;Despacho -->
<g id="edge1" class="edge">
<title>Textiles&#45;&gt;Despacho</title>
<path fill="none" stroke="black" d="M21.07,-156.01C14.71,-147.6 8.79,-137.92 5.45,-127.89 1.36,-115.63 4.32,-102.98 10.19,-91.48"/>
<polygon fill="black" stroke="black" points="13.39,-92.93 15.44,-82.54 7.36,-89.39 13.39,-92.93"/>
<text text-anchor="middle" x="8.95" y="-116.69" font-family="Times New Roman,serif" font-size="14.00">1</text>
</g>
<!-- Textiles&#45;&gt;Despacho -->
<g id="edge4" class="edge">
<title>Textiles&#45;&gt;Despacho</title>
<path fill="none" stroke="black" d="M39.09,-146.69C37.99,-140.44 37.04,-134.01 36.45,-127.89 35.7,-120.19 35.79,-112.1 36.4,-104.13"/>
<polygon fill="black" stroke="black" points="39.88,-104.47 37.41,-94.16 32.92,-103.76 39.88,-104.47"/>
<text text-anchor="middle" x="39.95" y="-116.69" font-family="Times New Roman,serif" font-size="14.00">4</text>
</g>
<!-- Despacho&#45;&gt;Textiles -->
<g id="edge2" class="edge">
<title>Despacho&#45;&gt;Textiles</title>
<path fill="none" stroke="black" d="M47.45,-94.91C47.45,-108.01 47.45,-122.28 47.45,-135.48"/>
<polygon fill="black" stroke="black" points="43.95,-135.8 47.45,-145.8 50.95,-135.8 43.95,-135.8"/>
<text text-anchor="middle" x="50.95" y="-116.69" font-family="Times New Roman,serif" font-size="14.00">2</text>
</g>
<!-- Despacho&#45;&gt;Textiles -->
<g id="edge5" class="edge">
<title>Despacho&#45;&gt;Textiles</title>
<path fill="none" stroke="black" d="M57.48,-94.16C58.87,-105.19 59.51,-116.94 58.45,-127.89 58.17,-130.76 57.81,-133.69 57.4,-136.65"/>
<polygon fill="black" stroke="black" points="53.91,-136.26 55.8,-146.69 60.83,-137.36 53.91,-136.26"/>
<text text-anchor="middle" x="61.95" y="-116.69" font-family="Times New Roman,serif" font-size="14.00">5</text>
</g>
</g>
</svg>
