<?xml version="1.0" encoding="UTF-8" standalone="no"?>
<!DOCTYPE svg PUBLIC "-//W3C//DTD SVG 1.1//EN"
 "http://www.w3.org/Graphics/SVG/1.1/DTD/svg11.dtd">
<!-- Generated by graphviz version 2.46.1 (20210213.1702)
 -->
<!-- Title: grafo Pages: 1 -->
<svg width="274pt" height="546pt"
 viewBox="0.00 0.00 274.42 545.77" xmlns="http://www.w3.org/2000/svg" xmlns:xlink="http://www.w3.org/1999/xlink">
<g id="graph0" class="graph" transform="scale(1 1) rotate(0) translate(4 541.77)">
<title>grafo</title>
<polygon fill="white" stroke="transparent" points="-4,4 -4,-541.77 270.42,-541.77 270.42,4 -4,4"/>
<!-- Despacho -->
<g id="node1" class="node">
<title>Despacho</title>
<ellipse fill="lightgrey" stroke="black" cx="165.62" cy="-490.32" rx="47.39" ry="47.39"/>
<text text-anchor="middle" x="165.62" y="-486.62" font-family="Times New Roman,serif" font-size="14.00">Despacho</text>
</g>
<!-- Aranceles -->
<g id="node2" class="node">
<title>Aranceles</title>
<ellipse fill="lightgrey" stroke="black" cx="90.62" cy="-345.73" rx="46.29" ry="46.29"/>
<text text-anchor="middle" x="90.62" y="-342.03" font-family="Times New Roman,serif" font-size="14.00">Aranceles</text>
</g>
<!-- Despacho&#45;&gt;Aranceles -->
<g id="edge1" class="edge">
<title>Despacho&#45;&gt;Aranceles</title>
<path fill="none" stroke="black" d="M132.49,-456.33C124.38,-446.81 116.38,-435.97 110.62,-424.87 106.82,-417.54 103.71,-409.43 101.17,-401.3"/>
<polygon fill="black" stroke="black" points="104.46,-400.08 98.35,-391.42 97.73,-402 104.46,-400.08"/>
<text text-anchor="middle" x="114.12" y="-413.67" font-family="Times New Roman,serif" font-size="14.00">5</text>
</g>
<!-- Textiles -->
<g id="node3" class="node">
<title>Textiles</title>
<ellipse fill="lightgrey" stroke="black" cx="147.62" cy="-209.59" rx="38.99" ry="38.99"/>
<text text-anchor="middle" x="147.62" y="-205.89" font-family="Times New Roman,serif" font-size="14.00">Textiles</text>
</g>
<!-- Despacho&#45;&gt;Textiles -->
<g id="edge5" class="edge">
<title>Despacho&#45;&gt;Textiles</title>
<path fill="none" stroke="black" d="M120.91,-474.17C85.01,-459.36 37.01,-432.97 14.62,-391.87 -5,-355.85 -4.7,-335.76 14.62,-299.58 32.95,-265.27 71.02,-241.87 101.75,-227.71"/>
<polygon fill="black" stroke="black" points="103.29,-230.85 111.02,-223.61 100.46,-224.45 103.29,-230.85"/>
<text text-anchor="middle" x="25.12" y="-342.03" font-family="Times New Roman,serif" font-size="14.00">100</text>
</g>
<!-- Reparaciones -->
<g id="node4" class="node">
<title>Reparaciones</title>
<ellipse fill="lightgrey" stroke="black" cx="206.62" cy="-59.79" rx="59.59" ry="59.59"/>
<text text-anchor="middle" x="206.62" y="-56.09" font-family="Times New Roman,serif" font-size="14.00">Reparaciones</text>
</g>
<!-- Despacho&#45;&gt;Reparaciones -->
<g id="edge3" class="edge">
<title>Despacho&#45;&gt;Reparaciones</title>
<path fill="none" stroke="black" d="M175.08,-443.37C178.16,-427.15 181.36,-408.76 183.62,-391.87 195.7,-301.7 201.63,-196.82 204.4,-129.67"/>
<polygon fill="black" stroke="black" points="207.9,-129.76 204.8,-119.63 200.9,-129.48 207.9,-129.76"/>
<text text-anchor="middle" x="199.12" y="-270.38" font-family="Times New Roman,serif" font-size="14.00">6</text>
</g>
<!-- Aranceles&#45;&gt;Despacho -->
<g id="edge2" class="edge">
<title>Aranceles&#45;&gt;Despacho</title>
<path fill="none" stroke="black" d="M111.75,-386.9C120.23,-403.02 130.1,-421.79 139.06,-438.82"/>
<polygon fill="black" stroke="black" points="136.18,-440.86 143.93,-448.08 142.37,-437.6 136.18,-440.86"/>
<text text-anchor="middle" x="133.12" y="-413.67" font-family="Times New Roman,serif" font-size="14.00">5</text>
</g>
<!-- Aranceles&#45;&gt;Textiles -->
<g id="edge7" class="edge">
<title>Aranceles&#45;&gt;Textiles</title>
<path fill="none" stroke="black" d="M94.24,-299.39C96.18,-288.34 99.13,-276.78 103.62,-266.58 106.64,-259.74 110.69,-253 115.12,-246.7"/>
<polygon fill="black" stroke="black" points="118.13,-248.52 121.32,-238.42 112.52,-244.33 118.13,-248.52"/>
<text text-anchor="middle" x="110.62" y="-270.38" font-family="Times New Roman,serif" font-size="14.00">10</text>
</g>
<!-- Textiles&#45;&gt;Despacho -->
<g id="edge6" class="edge">
<title>Textiles&#45;&gt;Despacho</title>
<path fill="none" stroke="black" d="M150.1,-248.86C153.16,-296.32 158.41,-377.65 161.95,-432.42"/>
<polygon fill="black" stroke="black" points="158.47,-432.91 162.61,-442.67 165.46,-432.46 158.47,-432.91"/>
<text text-anchor="middle" x="169.12" y="-342.03" font-family="Times New Roman,serif" font-size="14.00">100</text>
</g>
<!-- Textiles&#45;&gt;Aranceles -->
<g id="edge8" class="edge">
<title>Textiles&#45;&gt;Aranceles</title>
<path fill="none" stroke="black" d="M132.7,-245.99C127.9,-257.36 122.54,-270.01 117.62,-281.58 115.97,-285.47 114.26,-289.49 112.53,-293.54"/>
<polygon fill="black" stroke="black" points="109.22,-292.39 108.51,-302.96 115.66,-295.14 109.22,-292.39"/>
<text text-anchor="middle" x="129.62" y="-270.38" font-family="Times New Roman,serif" font-size="14.00">10</text>
</g>
<!-- Textiles&#45;&gt;Reparaciones -->
<g id="edge9" class="edge">
<title>Textiles&#45;&gt;Reparaciones</title>
<path fill="none" stroke="black" d="M155.98,-171.25C158.88,-160.24 162.46,-148.29 166.62,-137.59 168.63,-132.42 170.89,-127.15 173.29,-121.91"/>
<polygon fill="black" stroke="black" points="176.61,-123.08 177.73,-112.55 170.28,-120.08 176.61,-123.08"/>
<text text-anchor="middle" x="170.12" y="-141.39" font-family="Times New Roman,serif" font-size="14.00">7</text>
</g>
<!-- Reparaciones&#45;&gt;Despacho -->
<g id="edge4" class="edge">
<title>Reparaciones&#45;&gt;Despacho</title>
<path fill="none" stroke="black" d="M215.85,-118.98C216.57,-125.25 217.19,-131.54 217.62,-137.59 225.67,-250.54 219.74,-280.09 201.62,-391.87 199.21,-406.77 198.43,-410.57 193.62,-424.87 192.21,-429.09 190.63,-433.4 188.96,-437.71"/>
<polygon fill="black" stroke="black" points="185.68,-436.5 185.2,-447.09 192.18,-439.11 185.68,-436.5"/>
<text text-anchor="middle" x="222.12" y="-270.38" font-family="Times New Roman,serif" font-size="14.00">6</text>
</g>
<!-- Reparaciones&#45;&gt;Textiles -->
<g id="edge10" class="edge">
<title>Reparaciones&#45;&gt;Textiles</title>
<path fill="none" stroke="black" d="M187.35,-116.92C183.03,-128.78 178.32,-141.15 173.62,-152.59 172,-156.55 170.24,-160.64 168.45,-164.71"/>
<polygon fill="black" stroke="black" points="165.11,-163.59 164.2,-174.15 171.5,-166.47 165.11,-163.59"/>
<text text-anchor="middle" x="182.12" y="-141.39" font-family="Times New Roman,serif" font-size="14.00">7</text>
</g>
</g>
</svg>
