<?xml version="1.0" encoding="UTF-8" standalone="no"?>
<!DOCTYPE svg PUBLIC "-//W3C//DTD SVG 1.1//EN"
 "http://www.w3.org/Graphics/SVG/1.1/DTD/svg11.dtd">
<!-- Generated by graphviz version 2.46.1 (20210213.1702)
 -->
<!-- Title: grafo Pages: 1 -->
<svg width="229pt" height="598pt"
 viewBox="0.00 0.00 228.94 597.76" xmlns="http://www.w3.org/2000/svg" xmlns:xlink="http://www.w3.org/1999/xlink">
<g id="graph0" class="graph" transform="scale(1 1) rotate(0) translate(4 593.76)">
<title>grafo</title>
<polygon fill="white" stroke="transparent" points="-4,4 -4,-593.76 224.94,-593.76 224.94,4 -4,4"/>
<!-- NDespacho -->
<g id="node1" class="node">
<title>NDespacho</title>
<ellipse fill="lightgrey" stroke="black" cx="141.65" cy="-535.82" rx="53.89" ry="53.89"/>
<text text-anchor="middle" x="141.65" y="-532.12" font-family="Times New Roman,serif" font-size="14.00">NDespacho</text>
</g>
<!-- NAranceles -->
<g id="node2" class="node">
<title>NAranceles</title>
<ellipse fill="lightgrey" stroke="black" cx="52.65" cy="-378.23" rx="52.79" ry="52.79"/>
<text text-anchor="middle" x="52.65" y="-374.53" font-family="Times New Roman,serif" font-size="14.00">NAranceles</text>
</g>
<!-- NDespacho&#45;&gt;NAranceles -->
<g id="edge1" class="edge">
<title>NDespacho&#45;&gt;NAranceles</title>
<path fill="none" stroke="black" d="M115.18,-488.56C105.19,-471.08 93.73,-451.05 83.38,-432.95"/>
<polygon fill="black" stroke="black" points="86.4,-431.18 78.39,-424.24 80.32,-434.66 86.4,-431.18"/>
<text text-anchor="middle" x="104.15" y="-452.67" font-family="Times New Roman,serif" font-size="14.00">5</text>
</g>
<!-- NTextiles -->
<g id="node3" class="node">
<title>NTextiles</title>
<ellipse fill="lightgrey" stroke="black" cx="117.65" cy="-229.08" rx="45.49" ry="45.49"/>
<text text-anchor="middle" x="117.65" y="-225.38" font-family="Times New Roman,serif" font-size="14.00">NTextiles</text>
</g>
<!-- NDespacho&#45;&gt;NTextiles -->
<g id="edge3" class="edge">
<title>NDespacho&#45;&gt;NTextiles</title>
<path fill="none" stroke="black" d="M137.46,-481.74C133.12,-426.51 126.34,-340.47 121.95,-284.69"/>
<polygon fill="black" stroke="black" points="125.43,-284.33 121.15,-274.64 118.45,-284.88 125.43,-284.33"/>
<text text-anchor="middle" x="144.15" y="-374.53" font-family="Times New Roman,serif" font-size="14.00">100</text>
</g>
<!-- NReparaciones -->
<g id="node4" class="node">
<title>NReparaciones</title>
<ellipse fill="lightgrey" stroke="black" cx="154.65" cy="-66.29" rx="66.09" ry="66.09"/>
<text text-anchor="middle" x="154.65" y="-62.59" font-family="Times New Roman,serif" font-size="14.00">NReparaciones</text>
</g>
<!-- NDespacho&#45;&gt;NReparaciones -->
<g id="edge2" class="edge">
<title>NDespacho&#45;&gt;NReparaciones</title>
<path fill="none" stroke="black" d="M151.28,-482.48C162.73,-413.88 179.37,-289.79 171.65,-183.59 170.66,-170 169.03,-155.58 167.16,-141.7"/>
<polygon fill="black" stroke="black" points="170.61,-141.12 165.76,-131.7 163.68,-142.09 170.61,-141.12"/>
<text text-anchor="middle" x="175.15" y="-296.38" font-family="Times New Roman,serif" font-size="14.00">6</text>
</g>
<!-- NAranceles&#45;&gt;NTextiles -->
<g id="edge4" class="edge">
<title>NAranceles&#45;&gt;NTextiles</title>
<path fill="none" stroke="black" d="M73.57,-329.86C80.58,-313.99 88.42,-296.24 95.52,-280.17"/>
<polygon fill="black" stroke="black" points="98.76,-281.49 99.6,-270.93 92.36,-278.66 98.76,-281.49"/>
<text text-anchor="middle" x="96.65" y="-296.38" font-family="Times New Roman,serif" font-size="14.00">10</text>
</g>
<!-- NTextiles&#45;&gt;NReparaciones -->
<g id="edge5" class="edge">
<title>NTextiles&#45;&gt;NReparaciones</title>
<path fill="none" stroke="black" d="M127.66,-184.57C130.77,-171.07 134.28,-155.79 137.72,-140.83"/>
<polygon fill="black" stroke="black" points="141.14,-141.6 139.97,-131.07 134.32,-140.03 141.14,-141.6"/>
<text text-anchor="middle" x="139.15" y="-154.39" font-family="Times New Roman,serif" font-size="14.00">7</text>
</g>
</g>
</svg>
